<?xml version="1.0" standalone="no"?>
<!DOCTYPE svg PUBLIC "-//W3C//DTD SVG 20010904//EN"
 "http://www.w3.org/TR/2001/REC-SVG-20010904/DTD/svg10.dtd">
<svg version="1.0" xmlns="http://www.w3.org/2000/svg"
 width="2048.000000pt" height="2048.000000pt" viewBox="0 0 2048.000000 2048.000000"
 preserveAspectRatio="xMidYMid meet">

<g transform="translate(0.000000,2048.000000) scale(0.100000,-0.100000)"
fill="#000000" stroke="none">
<path d="M0 10240 l0 -10240 10240 0 10240 0 0 10240 0 10240 -10240 0 -10240
0 0 -10240z m12065 1480 l0 -1845 -22 -40 c-74 -139 -250 -160 -359 -43 -27
29 -541 679 -789 998 -49 63 -196 250 -325 415 -130 165 -339 431 -464 590
-677 864 -845 1073 -897 1124 -58 56 -120 94 -204 128 -64 25 -81 27 -205 28
-128 0 -139 -2 -212 -31 -180 -73 -304 -202 -364 -381 l-26 -78 1 -1602 c1
-882 0 -1603 -3 -1603 -3 0 -98 66 -211 148 l-206 147 -1 1460 c-1 1578 -3
1512 52 1675 45 137 153 303 262 407 399 377 1006 382 1403 12 74 -69 163
-179 676 -834 130 -165 420 -534 644 -820 469 -596 598 -761 732 -932 53 -68
96 -123 97 -123 0 0 0 686 -2 1525 l-3 1525 213 -2 213 -3 0 -1845z m853 -100
c2 -1380 0 -1974 -8 -2044 -21 -182 -72 -321 -175 -476 -141 -213 -347 -361
-591 -426 -335 -89 -681 -9 -937 216 -54 48 -261 307 -960 1200 -657 840
-1175 1493 -1188 1498 -5 2 -9 -629 -9 -1522 l0 -1526 -210 0 -210 0 0 1836
c0 1347 3 1847 11 1875 33 107 164 181 265 149 22 -7 54 -24 72 -37 33 -24
273 -321 622 -768 90 -115 225 -286 300 -380 74 -93 232 -294 350 -444 939
-1200 1202 -1531 1250 -1574 54 -49 155 -101 237 -122 75 -20 219 -19 297 1
203 52 376 225 444 444 15 51 17 209 19 2053 l3 1997 208 -2 207 -3 3 -1945z
m-4923 -2317 c96 -71 235 -170 309 -221 74 -51 137 -100 141 -109 3 -10 -2
-24 -12 -34 -15 -15 -299 -216 -541 -383 -105 -73 -107 -71 -107 130 l0 158
73 52 c41 28 79 57 84 62 12 12 -3 31 -40 51 -12 7 -20 16 -17 22 4 5 3 8 -2
7 -4 -1 -27 10 -50 25 l-43 27 -1 98 c-1 53 -3 120 -5 147 -4 64 3 95 21 95 8
0 94 -57 190 -127z m-684 -2045 c11 -13 101 -123 200 -245 100 -123 184 -223
186 -223 3 0 4 98 3 218 -4 302 -10 272 50 272 l50 0 -2 -347 -3 -348 -35 2
c-26 1 -43 10 -65 35 -51 58 -300 362 -341 417 l-39 52 -3 -255 -2 -256 -50 0
-50 0 0 350 0 350 41 0 c30 0 46 -6 60 -22z m2370 10 c0 -10 2 -10 6 -1 6 15
46 7 81 -15 18 -12 22 -12 20 -2 -2 8 5 16 16 18 12 3 16 0 11 -8 -5 -9 -2
-10 13 -6 22 7 122 -37 122 -53 0 -5 -8 -19 -19 -32 -17 -21 -21 -22 -50 -10
-17 8 -31 18 -31 24 0 6 -3 8 -6 4 -4 -3 -19 0 -35 8 -15 8 -45 15 -66 16 -30
0 -34 2 -18 9 18 8 17 9 -7 9 -16 1 -28 -4 -28 -10 0 -7 -10 -9 -25 -7 -14 3
-25 1 -25 -3 0 -5 -6 -9 -14 -9 -8 0 -28 -16 -45 -35 -64 -73 -26 -142 99
-180 34 -10 57 -22 53 -28 -4 -6 -1 -7 6 -3 16 10 83 -2 76 -14 -3 -4 3 -6 12
-4 29 7 96 -38 121 -81 18 -32 22 -51 19 -94 -3 -46 -9 -59 -36 -83 -17 -15
-28 -28 -24 -28 13 0 -37 -32 -55 -35 -9 -2 -17 -4 -17 -6 0 -4 -44 -10 -115
-15 -61 -5 -87 -2 -140 16 -64 21 -140 63 -140 78 0 4 10 20 23 36 l23 28 44
-29 c25 -17 65 -38 90 -47 25 -10 51 -23 59 -29 12 -9 13 -9 7 1 -5 9 3 12 28
12 35 0 43 -10 37 -43 -1 -5 3 -6 8 -3 5 3 7 15 4 26 -4 16 -2 19 11 14 9 -3
16 -2 16 2 0 5 20 18 45 29 38 16 45 24 50 56 8 45 -9 84 -45 110 -14 10 -74
32 -135 50 -156 44 -195 65 -222 119 -28 54 -29 92 -4 147 22 46 77 88 139
102 53 13 62 13 63 -1z m621 -80 l3 -73 78 -3 77 -3 0 -34 0 -35 -80 0 -80 0
0 -164 c0 -149 2 -166 20 -189 13 -17 35 -28 58 -32 75 -12 82 -15 82 -35 0
-14 -11 -22 -41 -30 -35 -10 -51 -8 -97 7 -92 30 -96 41 -100 258 l-4 184 -41
3 c-39 3 -42 5 -45 36 -3 32 -3 32 42 32 l46 0 0 75 0 75 40 0 39 0 3 -72z
m-1878 -91 c83 -38 131 -114 137 -217 l4 -55 -215 -5 c-208 -5 -215 -6 -212
-25 21 -115 171 -168 286 -101 l48 28 29 -28 c27 -26 28 -29 12 -46 -26 -28
-113 -67 -169 -74 -85 -10 -198 32 -252 96 -7 8 -25 39 -39 69 -22 46 -25 63
-21 125 9 136 85 225 223 260 38 9 117 -3 169 -27z m491 -67 c39 -49 72 -89
75 -90 3 0 36 41 75 90 l69 90 59 0 59 0 -28 -37 c-15 -21 -59 -78 -96 -126
-37 -49 -68 -92 -68 -97 0 -4 45 -68 100 -141 l100 -134 -56 -3 c-33 -2 -62 2
-70 9 -8 6 -44 53 -81 105 l-66 93 -76 -104 -76 -105 -57 0 c-32 0 -58 3 -58
7 0 3 45 66 100 140 l101 134 -96 124 c-52 68 -95 126 -95 129 0 3 26 6 58 6
l57 0 70 -90z m2019 84 c9 -4 16 -18 16 -34 0 -26 -3 -28 -48 -32 -57 -6 -90
-27 -126 -83 -25 -38 -26 -43 -26 -207 l0 -168 -40 0 -40 0 0 260 0 260 35 0
c19 0 35 -3 36 -7 0 -5 2 -18 3 -30 4 -35 11 -36 42 -7 48 44 107 64 148 48z
m509 -10 c49 -16 108 -69 134 -119 17 -32 34 -143 23 -150 -4 -2 -99 -5 -213
-5 -113 -1 -208 -4 -211 -7 -17 -17 53 -120 99 -145 34 -19 115 -37 121 -27 3
5 16 9 30 9 14 0 40 11 58 25 32 25 34 25 55 8 29 -24 20 -44 -30 -72 -78 -44
-199 -43 -285 2 -39 20 -89 77 -110 125 -10 22 -17 65 -18 107 0 59 4 78 29
124 65 118 192 168 318 125z m637 5 c71 -15 124 -67 139 -138 6 -29 11 -126
11 -216 l0 -165 -35 0 c-30 0 -35 3 -35 23 0 36 -9 38 -44 13 -85 -65 -211
-59 -288 13 -82 76 -56 189 54 236 35 14 37 14 33 -5 -3 -16 1 -18 25 -14 15
4 36 1 47 -5 16 -9 15 -10 -10 -11 -37 0 -80 -23 -101 -54 -39 -61 -4 -120 84
-138 49 -10 60 -9 102 10 58 25 88 70 88 129 0 41 -1 42 -37 48 -57 10 -66 14
-59 30 3 8 4 15 3 15 -1 0 -16 -4 -32 -9 -21 -6 -34 -4 -42 4 -8 9 9 12 76 12
81 0 86 2 89 23 5 31 -14 73 -49 106 -28 26 -37 29 -102 29 -57 0 -79 -5 -108
-22 -35 -22 -37 -22 -53 -5 -26 29 -19 48 25 67 70 32 144 40 219 24z m697 -4
c32 -10 61 -26 77 -45 25 -30 46 -39 46 -20 0 18 91 69 135 75 54 9 123 -10
159 -43 54 -51 64 -89 72 -294 l7 -188 -42 0 -41 0 0 168 c0 154 -2 171 -22
212 -55 109 -197 101 -249 -14 -16 -35 -19 -67 -19 -203 l0 -163 -35 0 -35 0
0 173 c0 194 -8 223 -69 264 -63 42 -133 27 -181 -38 l-30 -42 0 -179 0 -178
-40 0 -40 0 0 260 0 260 35 0 c32 0 35 -2 35 -29 0 -17 5 -33 10 -36 6 -3 10
-2 10 4 0 12 61 50 98 61 41 12 63 11 119 -5z"/>
<path d="M8235 7026 c-49 -21 -110 -105 -91 -123 3 -3 73 -8 156 -11 149 -5
150 -5 150 17 0 29 -22 71 -54 100 -32 30 -115 39 -161 17z"/>
<path d="M11284 7040 c-48 -19 -126 -134 -106 -155 3 -3 82 -5 175 -5 l170 0
-7 31 c-10 50 -45 98 -87 119 -39 21 -108 25 -145 10z"/>
</g>
</svg>
